<?xml version="1.0" encoding="UTF-8" standalone="no"?> <svg id="Layer_1" data-name="Layer 1" xmlns="http://www.w3.org/2000/svg" viewBox="0 0 128 128"><defs><style>.cls-1{fill:#2e79bd;}.cls-2{fill:#2d3e50;}</style></defs><title>b</title><path class="cls-1" d="M69.17463,60.427c-4.13914-2.06356-13.22974-5.11377-13.22974-5.11377V52.31107l.25276-.19251a8.64053,8.64053,0,0,0,3.297-5.51689l.054-.31889h.24668a3.35919,3.35919,0,0,0,3.10446-2.0876,3.67,3.67,0,0,0,.45715-1.76878,3.35224,3.35224,0,0,0-.2406-1.24543A1.71271,1.71271,0,0,0,62.4425,40.098l-.83623-.50532.20453-.91452C63.327,32.0784,58.21312,26.12832,51.34251,25.96587c-.16238-.006-.331-.006-.49336,0-.16238-.006-.33084-.006-.4993,0-6.86466.16245-11.98445,6.11252-10.46843,12.71233l.21075.91452-.84245.50532a1.76425,1.76425,0,0,0-.67385,1.08291,3.3474,3.3474,0,0,0-.23452,1.24543,3.60488,3.60488,0,0,0,.45715,1.76878,3.353,3.353,0,0,0,3.10446,2.0876h.24668l.04809.31889a8.69091,8.69091,0,0,0,3.297,5.51689l.25262.19251v3.00219s-9.0906,3.05022-13.22974,5.11377a4.44355,4.44355,0,0,0-2.38238,3.20665c-.12645.72194-.22858,1.92522-.325,3.42929a27.4317,27.4317,0,0,0,2.26229,2.56894,26.58717,26.58717,0,0,0,37.54745,0A27.40965,27.40965,0,0,0,71.88205,67.063c-.09632-1.50407-.19845-2.70735-.3249-3.42929A4.41332,4.41332,0,0,0,69.17463,60.427Z"/><path class="cls-2" d="M122.49884,107.8052,97.65976,80.94684,93.6881,84.92232l-4.49884-4.49877c.34513-.44647.68969-.89316,1.01671-1.34876A48.35524,48.35524,0,1,0,78.348,90.72947q1.02817-.70928,2.021-1.478L84.86058,93.743l-4.4598,4.45973,27.40434,24.31848a10.39793,10.39793,0,1,0,14.69371-14.71606ZM74.56458,74.57455a33.57526,33.57526,0,1,1,9.80887-23.71613A33.57849,33.57849,0,0,1,74.56458,74.57455Z"/></svg>